<svg width="22" height="19" viewBox="0 0 22 19" fill="none" xmlns="http://www.w3.org/2000/svg">
<path fill-rule="evenodd" clip-rule="evenodd" d="M18.7829 1.24759C19.1314 1.165 19.3744 1.08379 19.5735 0.998493C19.8525 0.878953 20.0839 0.735752 20.4493 0.494582C20.7564 0.291902 21.15 0.274252 21.474 0.448632C21.798 0.623012 22.0001 0.961243 22.0001 1.3292C22.0001 2.41014 21.8655 3.29607 21.5536 4.07575C21.2912 4.73155 20.9227 5.26421 20.4818 5.74902C20.2955 9.1122 19.322 11.7532 17.8337 13.7542C16.2912 15.8281 14.2387 17.1562 12.0752 17.8999C9.91796 18.6414 7.6387 18.8071 5.59678 18.5561C3.56824 18.3067 1.69312 17.6351 0.386131 16.6185C0.0282006 16.3401 -0.0976114 15.8558 0.0795906 15.4384C0.256781 15.021 0.692641 14.7751 1.14152 14.8392C2.42748 15.023 3.66538 14.7306 4.68327 14.3125C4.48289 14.2035 4.29396 14.0855 4.11836 13.964C3.19082 13.3218 2.44248 12.4501 2.10564 11.7765C1.96626 11.4977 1.96482 11.1699 2.10175 10.8899C2.17239 10.7455 2.27569 10.6223 2.40111 10.5285C1.04685 9.4108 0.500071 7.8649 0.500071 6.8292C0.500071 6.52126 0.641941 6.2305 0.884671 6.04099C0.986721 5.96131 1.10182 5.90327 1.22316 5.86831C1.12182 5.57156 1.04318 5.27176 0.983231 4.98151C0.717471 3.69464 0.741061 2.24218 1.02992 1.08667C1.12877 0.691262 1.45772 0.395402 1.86136 0.338872C2.26501 0.282332 2.66257 0.476442 2.86625 0.829482C3.94376 2.69716 5.93123 3.83878 7.78094 4.51502C8.65057 4.83296 9.45606 5.03556 10.0597 5.16013C10.19 3.93953 10.5309 2.93294 11.0539 2.13345C11.744 1.07866 12.7065 0.454592 13.7402 0.176322C15.5228 -0.303578 17.5009 0.243172 18.7829 1.24759ZM9.74846 7.1378C9.06336 7.0002 8.12179 6.76911 7.0942 6.39342C5.73698 5.89723 4.16096 5.12352 2.84079 3.92505C2.86442 4.1456 2.89797 4.36426 2.9419 4.577C3.16315 5.64834 3.57427 6.24833 3.94728 6.43484C4.40349 6.66294 4.61492 7.1978 4.43795 7.6762C4.19835 8.3239 3.56817 8.3771 2.99558 8.2339C3.45611 8.9244 4.28385 9.6128 5.66447 9.8429C6.14065 9.9222 6.49215 10.3305 6.49994 10.8131C6.50772 11.2958 6.16956 11.7152 5.69618 11.8098L4.82572 11.9839C4.95888 12.0997 5.10307 12.2132 5.25678 12.3196C5.95369 12.8021 6.65344 13.0101 7.25753 12.8591C7.70998 12.746 8.18054 12.9607 8.3917 13.3765C8.60286 13.7923 8.49853 14.2989 8.14025 14.5975C7.49633 15.1335 6.74432 15.5635 5.99065 15.9205C5.63683 16.0881 5.24142 16.2535 4.81197 16.3991C5.14226 16.4695 5.48593 16.5274 5.84086 16.571C7.61143 16.7887 9.58216 16.642 11.425 16.0085C13.2615 15.3773 14.9591 14.2679 16.229 12.5606C17.4972 10.8556 18.3821 8.496 18.5008 5.29225C18.5101 5.04001 18.6145 4.80064 18.793 4.62216C19.2427 4.17251 19.6142 3.65712 19.797 3.04365C19.4771 3.14337 19.1169 3.22969 18.6879 3.31171C18.3624 3.37393 18.0273 3.27091 17.793 3.03661C17.0285 2.27209 15.5165 1.76933 14.2601 2.10756C13.6687 2.26675 13.1312 2.61138 12.7276 3.2284C12.3154 3.85838 12.0001 4.83979 12.0001 6.32925C12.0001 6.61222 11.8802 6.8819 11.6702 7.0716C11.1722 7.5211 10.3341 7.2554 9.74846 7.1378Z" fill="#0F0F0F"/>
</svg>
