<svg width="20" height="22" viewBox="0 0 20 22" fill="none" xmlns="http://www.w3.org/2000/svg">
<path fill-rule="evenodd" clip-rule="evenodd" d="M14.3909 5C14.3722 4.9193 14.3528 4.83842 14.3325 4.75746C14.0685 3.70138 13.6528 2.55383 12.9749 1.65C12.2759 0.71802 11.2553 0 9.86237 0C8.46947 0 7.44885 0.71802 6.74986 1.65C6.07199 2.55383 5.65624 3.70138 5.39222 4.75747C5.37198 4.83842 5.35253 4.9193 5.33382 5H3.73347C2.15408 5 0.845179 6.22455 0.740119 7.80044L0.00677915 18.8004C-0.108651 20.532 1.26475 22 3.00014 22H16.7246C18.46 22 19.8334 20.532 19.718 18.8004L18.9846 7.80044C18.8796 6.22455 17.5707 5 15.9913 5H14.3909ZM5.33382 13.5C5.9068 13.5 6.86043 9.5684 6.86238 8.99817C6.86253 8.97438 6.86281 8.9506 6.86321 8.92682C6.86409 8.87413 6.86588 8.79455 6.86955 8.69194C6.87688 8.48652 6.89167 8.18999 6.92142 7.83304C6.94252 7.57976 6.97095 7.29862 7.00911 7H12.7157C12.7538 7.29862 12.7822 7.57976 12.8034 7.83305C12.8331 8.18999 12.8479 8.48652 12.8552 8.69194C12.8589 8.79455 12.8607 8.87413 12.8616 8.92682C12.862 8.95134 12.8623 8.97587 12.8624 9.0004C12.8624 9.0004 13.3325 13.5 14.3325 13.5C15.3325 13.5 14.8624 8.99866 14.8624 8.99866C14.8623 8.9636 14.8619 8.92854 14.8613 8.89349C14.8602 8.829 14.8581 8.7367 14.8539 8.62056C14.8457 8.38848 14.8292 8.06001 14.7964 7.66695C14.7794 7.46202 14.7577 7.23812 14.7303 7H15.9913C16.5178 7 16.9541 7.40818 16.9891 7.93348L17.7224 18.9335C17.7609 19.5107 17.3031 20 16.7246 20H3.00014C2.42168 20 1.96388 19.5107 2.00235 18.9335L2.73569 7.93348C2.77071 7.40818 3.20701 7 3.73347 7H4.99445C4.96702 7.23812 4.9454 7.46202 4.92832 7.66696C4.89557 8.06001 4.87911 8.38848 4.87082 8.62056C4.86667 8.7367 4.86456 8.829 4.86349 8.89349C4.86291 8.92785 4.86248 8.96221 4.86237 8.99658C4.86161 9.5672 4.76215 13.5 5.33382 13.5ZM7.39589 5H12.3289C12.0977 4.15322 11.7834 3.39466 11.3749 2.85C10.9489 2.28198 10.4695 2 9.86237 2C9.25527 2 8.77587 2.28198 8.34987 2.85C7.94137 3.39466 7.62709 4.15322 7.39589 5Z" fill="#0F0F0F"/>
</svg>
