<svg width="23" height="22" viewBox="0 0 23 22" fill="none" xmlns="http://www.w3.org/2000/svg">
<path fill-rule="evenodd" clip-rule="evenodd" d="M2.74347 5.00387C2.01781 6.24787 1.77898 7.97403 2.22484 9.7575C2.38529 10.3992 2.85173 11.2243 3.59097 12.174C4.31586 13.1052 5.2411 14.0787 6.22106 15.0127C8.16415 16.8648 10.2553 18.4985 11.2547 19.254C12.2541 18.4985 14.3452 16.8648 16.2883 15.0127C17.2683 14.0787 18.1935 13.1052 18.9184 12.174C19.6577 11.2243 20.1241 10.3992 20.2846 9.7575C20.7304 7.97403 20.4916 6.24787 19.7659 5.00387C19.0576 3.78965 17.8749 3 16.2547 3C14.8451 3 13.8516 4.04228 13.1491 5.44721C12.8116 6.12228 12.5822 6.80745 12.437 7.33015C12.3649 7.58959 12.3149 7.80435 12.2833 7.95172C12.1714 8.47392 11.569 8.5 11.2547 8.5C10.9404 8.5 10.337 8.46905 10.2261 7.95172C10.1945 7.80436 10.1445 7.58959 10.0724 7.33015C9.9272 6.80745 9.6978 6.12229 9.3603 5.44722C8.65778 4.04228 7.66426 3 6.25468 3C4.63449 3 3.45176 3.78965 2.74347 5.00387ZM11.2547 4.77011C11.2888 4.69784 11.324 4.62535 11.3603 4.55279C12.1578 2.95772 14.6642 0 17.2546 0C19.6344 0 20.4518 2.21035 21.4935 3.99613C22.5178 5.75212 22.779 8.02597 22.2248 10.2425C21.9623 11.2927 21.2901 12.3832 20.4966 13.4025C19.6888 14.4402 18.6874 15.4891 17.6682 16.4605C15.6289 18.4042 13.4504 20.1022 12.4357 20.8683C11.735 21.3974 10.7744 21.3974 10.0737 20.8683C9.05903 20.1022 6.88053 18.4042 4.84118 16.4605C3.82203 15.4891 2.82056 14.4402 2.01276 13.4025C1.21931 12.3832 0.547099 11.2927 0.284559 10.2425C-0.269587 8.02597 -0.00841737 5.75213 1.01591 3.99613C2.05761 2.21035 3.37483 0 5.75464 0C8.34504 0 10.3516 2.95772 11.1491 4.55278C11.1854 4.62535 11.2206 4.69784 11.2547 4.77011Z" fill="#0F0F0F"/>
</svg>
